# xmcd
#
# Track frame offsets: 
#        150
#        16492
#        26701
#        34800
#        49120
#        57275
#        62371
#        73579
#        81708
#        96270
#        104227
#        113432
#        130010
#        136122
#        146318
#        156520
#        164675
#        176921
#        187115
#        195268
#        207443
#        216148
#        222266
#        234286
#        240624
#        248780
#        254894
#        267133
#        273768
#        281164
#        288561
#        299776
#        307938
#        316067
#
# Disc length: 4464 seconds
#
# Revision: 0
# Processed by: cddbd v1.5.2PL0 Copyright (c) Steve Scherf et al.
# Submitted via: ExactAudioCopy v0.99pb4
#
DISCID=13116e22
DTITLE=Various Artist - Rinse: 09 - Mixed by N-Type
DYEAR=2009
DGENRE=Dubstep
TTITLE0=Kryptic Minds - Badman
TTITLE1=Silkie and Kutz - Carpark
TTITLE2=Headhunter - Experience
TTITLE3=Kromestar and Jay 5ive - Bass 96
TTITLE4=LD - King of Kong
TTITLE5=DJ Punisher - Gatling
TTITLE6=The Others - Karma
TTITLE7=Benga - Descending
TTITLE8=Mungo's Hi-Fi - International Roots ft. Earl 16 (LD Remix)
TTITLE9=Distance - Twilight
TTITLE10=Benga - Dramatic
TTITLE11=Kolbata - Ninja We Ninja
TTITLE12=Seven and Youngsta - Who's There?
TTITLE13=Emalkay - Solid State
TTITLE14=Benga - iTunes
TTITLE15=The Others - Dot 2 Dot
TTITLE16=Skream - Filth (Silkie Remix)
TTITLE17=Jakes - Rhythm
TTITLE18=Benga - Intensions
TTITLE19=Benga - Falling
TTITLE20=John and Jehn - Looking for You (LD Remix)
TTITLE21=Kutz - Freak
TTITLE22=Benga - The Sound of Asia
TTITLE23=N-Type and The Others - Shadow
TTITLE24=Jakes and Joker - 3KLane VIP
TTITLE25=Flux Pavilion - Fucking Noise
TTITLE26=Skream - Guitar Hero
TTITLE27=Benga - No Bra, No Panties
TTITLE28=Coki - New Blood
TTITLE29=Benga - The Camel Ride 2
TTITLE30=Emalkay - When I Look at You
TTITLE31=N-Type and The Others - Technophobia
TTITLE32=Trolley Snatcha - The Future
TTITLE33=Skream - Benny Page - Burning Up - Take You Back (Tease)
EXTD=
EXTT0=
EXTT1=
EXTT2=
EXTT3=
EXTT4=
EXTT5=
EXTT6=
EXTT7=
EXTT8=
EXTT9=
EXTT10=
EXTT11=
EXTT12=
EXTT13=
EXTT14=
EXTT15=
EXTT16=
EXTT17=
EXTT18=
EXTT19=
EXTT20=
EXTT21=
EXTT22=
EXTT23=
EXTT24=
EXTT25=
EXTT26=
EXTT27=
EXTT28=
EXTT29=
EXTT30=
EXTT31=
EXTT32=
EXTT33=
PLAYORDER=
